<svg width="1031.24409pt" height="684.73701pt" viewBox="0 0 1031.24409 684.73701" enable-background="new 0 0 1031.24409 684.73701"
	version="1.1" xmlns="http://www.w3.org/2000/svg" xmlns:xlink="http://www.w3.org/1999/xlink" >
	<g id="Layers">
		<g id="SYR_SE">
			<path clip-path="url(#SVG_CP_1)" fill="none" stroke="#000000" stroke-width="0.48001" stroke-miterlimit="10" stroke-linecap="round" stroke-linejoin="round" d="
				M832.57369,67.91881L833.53371,67.43881L834.01371,67.43881L834.25372,67.43881L834.49372,67.43881L834.73372,67.43881L834.97373,67.43881
				L835.93374,67.67881L836.65376,68.1588L836.89376,68.3988L837.13376,68.3988L837.85378,68.63879L838.09378,68.63879L838.57379,68.3988
				L838.81379,68.1588L839.0538,68.1588L840.25382,67.43881L840.49382,67.67881L840.73382,68.1588L841.21383,69.35878L841.45384,69.59878
				L841.69384,69.59878L842.65386,70.07877L843.13386,70.07877L843.85387,71.51874L844.57389,71.99873L844.81389,71.99873L846.25391,72.47873
				L846.97393,73.19871L847.21393,73.43871L847.45393,74.39869L847.21393,75.11868L846.97393,75.35867L846.01391,76.07866L845.2939,76.55865
				L844.81389,78.23862L844.81389,78.95861L845.05389,79.4386L846.01391,81.83856L846.25391,82.07856L846.25391,82.31855L846.49392,82.55855
				L846.97393,83.27854L847.21393,83.75853L847.21393,84.47851L847.21393,84.71851L847.21393,85.1985L846.97393,86.87847L846.73392,87.83846
				L847.21393,88.07845L847.69394,88.31845L847.93394,88.31845L847.93394,88.55844L848.17395,88.79844L848.89396,89.03843L849.85397,89.75842
				L849.85397,89.99842L850.33398,90.47841L850.33398,91.43839L844.81389,95.75832L837.85378,101.27822L836.89376,101.99821L836.41375,102.4782
				L835.21373,103.43818L834.97373,103.67818L829.93365,108.2381L827.0536,111.11805L826.81359,111.11805L826.81359,111.35804L826.09358,111.83803
				L822.73353,114.23799L822.73353,114.47799L820.8135,116.15796L817.69344,119.5179L816.73343,120.23789L815.0534,121.91786L814.57339,122.15785
				L814.33339,122.39785L814.09339,122.63784L811.45334,124.7978L811.21334,125.2778L810.73333,125.51779L806.41326,129.83772L803.29321,132.95766
				L803.0532,132.95766L800.41316,135.59761L793.45305,140.63753L792.25303,141.35751L790.573,142.55749L789.13298,143.51748L788.17296,144.23746
				L787.69295,144.23746L780.97284,145.67744L780.73284,145.67744L777.13278,146.63742L774.73274,147.11741L774.49273,147.11741
				L774.25273,147.11741L757.21245,149.75737L746.41227,151.43734L741.61219,152.15732L740.89218,153.11731L738.49214,156.71724
				L732.25204,165.35709L730.57201,167.75705L728.65198,170.637L728.65198,171.59698L728.65198,172.31697L728.41198,175.43691L728.41198,178.79685
				L728.41198,180.95682L727.93197,183.83677L726.73195,192.71661L725.53193,200.15648L725.29193,201.11646L725.29193,201.59645
				L725.05192,201.83645L724.57191,204.23641L725.29193,205.43639L725.77193,206.39637L732.97205,219.11615L736.81211,226.07602
				L738.25214,228.71598L738.49214,231.35593L738.49214,232.31591L739.45216,246.47566L739.69216,251.75557L733.93207,259.19544
				L727.93197,266.87531L727.21196,267.83529L727.21196,269.03527L726.97195,271.67522L726.49195,277.19512L726.49195,279.11509
				L725.77193,280.79506L724.33191,285.35498L723.6119,287.51494L722.89189,290.1549L722.65188,290.39489L722.65188,290.63489L721.69187,294.23482
				L721.45186,296.63478L721.21186,297.35477L721.21186,297.59477L720.97185,299.27474L720.01184,307.1946L720.25184,309.83455L
				720.25184,311.51452L720.49185,311.99451L720.49185,312.95449L720.49185,313.19449L720.49185,315.59445L720.97185,321.83434L
				721.21186,327.35424L721.21186,327.83423L721.45186,328.79422L721.45186,330.47419L721.45186,333.11414L721.45186,337.67406L
				721.69187,339.59403L721.69187,341.274L721.93187,343.67395L722.41188,345.83392L722.17187,346.31391L721.93187,346.7939L716.17178,353.75378
				L715.93177,353.99377L714.25174,355.91374L711.3717,359.51368L709.45167,363.11361L709.45167,363.35361L708.97166,364.0736L708.01164,365.99356
				L701.53153,378.95333L701.29153,379.67332L701.05153,379.91332L699.3715,383.03326L698.89149,383.51325L698.89149,383.75325L
				698.17148,383.99325L697.93148,384.23324L697.69147,384.23324L697.69147,384.47324L697.21146,386.6332L696.01144,387.11319L695.53144,387.35319
				L613.69009,425.99251L567.84934,447.59213L491.04807,483.59149L491.04807,483.83149L486.728,485.75145L449.52739,503.27115L339.36558,562.31011
				L301.20495,582.46975L259.92427,604.78936L250.32412,609.82927L246.96406,611.74924L244.32402,613.18921L242.40399,614.38919
				L241.44397,614.62919L236.8839,617.26914L235.20387,618.22912L234.96386,618.22912L234.72386,618.46912L233.28384,619.6691L231.1238,621.34907
				L222.24365,620.14909L220.08362,619.6691L218.8836,619.4291L218.40359,619.4291L216.96357,619.90909L216.72356,620.14909L216.48356,620.14909
				L215.76355,619.4291L215.28354,618.70912L209.52345,618.22912L204.72337,617.50914L199.44328,617.02915L198.48326,617.02915L
				193.92319,616.30916L193.68318,616.30916L192.96317,615.58917L192.72317,615.58917L191.76315,615.10918L191.52315,614.86918L
				189.60312,614.62919L183.60302,613.9092L182.643,613.42921L179.52295,610.78926L175.44289,607.18932L172.56284,605.26935L170.88281,604.06937
				L166.80274,601.66942L164.88271,600.46944L162.24267,598.30947L160.80264,597.58949L160.32264,597.58949L158.4026,598.54947L
				158.1626,598.78947L157.9226,598.78947L156.24257,598.30947L152.88251,598.06948L152.40251,598.30947L151.9225,598.30947L151.68249,598.30947
				L151.20249,598.30947L150.24247,598.30947L148.08244,598.78947L147.84243,596.8695L147.36242,595.42953L145.9224,592.30958L144.48238,591.1096
				L143.04235,589.90962L142.08234,589.18964L141.84233,588.94964L142.32234,586.30969L142.32234,584.86971L142.08234,583.66973
				L141.60233,583.18974L140.1623,582.70975L139.20229,582.70975L137.28226,582.94974L136.08224,582.46975L134.88222,581.74977L
				134.88222,581.50977L136.08224,580.54979L136.08224,579.5898L135.60223,579.10981L135.12222,578.86982L133.9222,578.86982L132.48218,578.14983
				L132.24217,577.66984L131.76217,576.46986L130.80215,575.74987L130.32214,575.74987L129.60213,575.98987L129.12212,575.98987
				L127.9221,575.74987L126.96209,575.74987L126.24208,575.50988L125.28206,574.78989L124.32204,574.54989L122.64202,574.54989L
				122.40201,574.54989L120.96199,575.02988L120.24198,575.26988L120.00197,575.26988L119.52197,575.26988L119.04196,575.02988L
				118.80195,575.02988L118.56195,575.02988L117.84194,574.78989L117.84194,574.54989L117.60193,574.0699L116.64192,574.3099L116.40191,574.3099
				L116.40191,574.0699L116.16191,573.82991L116.64192,572.86992L116.64192,572.62993L116.40191,572.14993L115.92191,571.90994L
				113.76187,572.62993L113.28186,572.62993L112.32185,572.86992L111.60184,573.34991L111.36183,574.0699L111.12183,574.0699L111.12183,574.3099
				L110.64182,574.54989L109.92181,575.02988L109.6818,575.02988L108.96179,575.02988L108.72179,575.02988L108.48178,575.02988L
				106.08174,575.74987L105.36173,575.98987L104.64172,576.70985L104.40172,577.18985L103.68171,577.42984L103.2017,577.66984L101.76167,579.10981
				L101.28167,579.5898L100.56165,579.8298L99.12163,580.0698L98.88163,580.30979L98.64162,580.54979L97.2016,579.8298L97.2016,579.5898
				L97.2016,579.34981L97.2016,579.10981L97.4416,578.62982L97.4416,578.38983L97.4416,578.14983L97.4416,577.90983L98.40162,577.66984
				L98.64162,577.18985L98.88163,576.94985L98.88163,576.22986L99.12163,575.26988L99.12163,574.78989L99.12163,574.54989L99.36163,574.3099
				L99.60164,573.58991L99.60164,573.10992L99.60164,572.86992L99.60164,572.38993L100.32165,569.98997L99.36163,568.31L99.60164,566.39004
				L98.88163,566.39004L98.64162,566.15004L98.40162,566.15004L98.40162,564.95006L97.92161,563.51009L98.16161,563.27009L98.40162,563.27009
				L98.40162,563.0301L98.64162,563.0301L98.88163,562.7901L98.88163,562.07011L98.40162,560.87013L98.16161,560.39014L98.16161,560.15015
				L98.16161,559.91015L97.2016,558.71017L96.48159,557.99018L96.00158,557.2702L94.80156,556.79021L94.80156,556.31021L95.28157,555.59023
				L95.52157,555.59023L96.00158,555.59023L96.00158,555.35023L96.24158,554.87024L96.00158,554.39025L96.48159,551.99029L96.48159,551.5103
				L96.48159,550.07032L96.72159,549.59033L96.72159,549.35034L96.96159,546.23039L96.72159,545.7504L96.96159,544.07043L96.72159,543.59044
				L96.96159,542.39046L97.92161,540.47049L98.64162,538.07053L98.64162,537.59054L98.40162,536.39056L98.88163,535.67058L99.36163,531.35065
				L100.32165,529.43069L101.28167,527.99071L100.32165,523.91078L100.56165,521.99082L100.80166,521.51083L100.80166,519.83086
				L101.28167,519.35086L101.52167,519.35086L101.76167,519.11087L102.00168,518.87087L102.24168,518.87087L102.48169,518.63088
				L102.72169,517.91089L102.72169,517.67089L102.24168,517.4309L101.28167,517.4309L99.60164,517.1909L99.12163,517.1909L98.64162,517.4309
				L98.40162,517.4309L98.16161,517.67089L96.48159,517.91089L96.00158,517.91089L96.00158,517.67089L96.24158,517.67089L96.00158,517.4309
				L96.00158,517.1909L96.00158,516.95091L96.00158,516.71091L95.76157,516.71091L95.52157,516.71091L95.52157,516.47091L95.76157,516.47091
				L95.76157,516.23092L95.76157,515.99092L96.00158,515.99092L95.76157,515.99092L95.76157,515.75093L95.76157,515.51093L96.00158,515.51093
				L95.76157,515.27094L95.76157,515.03094L95.52157,515.03094L95.76157,514.79094L96.00158,514.55095L96.24158,514.55095L96.48159,514.55095
				L96.72159,514.31095L96.96159,514.31095L97.2016,514.31095L97.4416,514.07096L97.68161,514.07096L97.92161,513.83096L98.16161,513.83096
				L98.40162,513.83096L98.64162,514.07096L98.88163,514.07096L99.12163,514.31095L99.36163,514.31095L99.60164,514.31095L99.84164,514.31095
				L99.84164,514.55095L100.08165,514.31095L100.32165,514.07096L100.56165,514.07096L100.56165,513.83096L100.80166,513.83096L
				101.04166,513.59097L101.28167,513.35097L101.52167,513.35097L101.76167,513.11097L102.00168,513.11097L102.00168,512.87098L
				102.24168,512.87098L102.48169,512.63098L102.48169,512.39099L102.72169,512.39099L102.96169,512.39099L102.96169,512.15099L
				103.2017,512.15099L103.4417,512.15099L103.68171,511.91099L103.92171,511.91099L104.16171,511.671L104.40172,511.671L104.64172,511.671
				L104.88172,511.431L105.12173,511.431L105.36173,511.19101L105.60174,510.95101L105.60174,510.71102L105.60174,510.47102L105.84174,510.47102
				L105.84174,510.23102L105.84174,509.99103L105.84174,509.75103L105.84174,509.51104L105.84174,509.27104L106.08174,509.27104
				L106.08174,509.03105L106.32175,508.79105L106.56175,508.55105L106.80176,508.55105L107.04176,508.55105L107.28176,508.31106
				L107.52177,508.31106L107.76177,508.31106L108.00178,508.55105L108.24178,508.55105L108.48178,508.55105L108.72179,508.55105
				L108.72179,508.79105L108.96179,508.79105L109.2018,508.79105L109.4418,508.79105L109.6818,508.79105L109.92181,508.79105L109.92181,508.55105
				L110.16181,508.55105L110.40182,508.55105L110.40182,508.31106L110.64182,508.31106L110.88182,508.31106L111.12183,508.31106
				L111.36183,508.31106L111.36183,508.07106L111.60184,508.07106L111.84184,508.07106L112.08184,508.07106L112.08184,507.83107
				L112.32185,507.83107L112.56185,507.83107L112.80186,507.59107L113.04186,507.59107L113.28186,507.59107L113.28186,507.35107
				L113.52187,507.35107L113.76187,507.35107L114.00187,507.11108L114.24188,507.11108L114.48188,506.87108L114.72189,506.87108
				L114.96189,506.63109L115.20189,506.63109L115.20189,506.39109L115.4419,506.39109L115.6819,506.1511L115.92191,505.9111L116.16191,505.6711
				L116.40191,505.6711L116.64192,505.43111L116.88192,505.43111L117.12193,505.43111L117.12193,505.19111L117.36193,505.19111L
				117.36193,504.95112L117.60193,504.95112L117.60193,504.71112L117.60193,504.47113L117.60193,504.23113L117.60193,503.99113L
				117.60193,503.75114L117.60193,503.51114L117.60193,503.27115L117.84194,503.03115L117.84194,502.79116L117.84194,502.55116L
				117.60193,502.55116L117.84194,502.31116L117.84194,502.07117L117.84194,501.83117L117.84194,501.59118L118.08194,501.59118L
				118.08194,501.35118L118.32195,501.11118L118.32195,500.87119L118.56195,500.87119L118.56195,500.63119L118.80195,500.63119L
				119.04196,500.3912L119.28196,500.1512L119.52197,500.1512L119.76197,499.91121L120.00197,499.91121L120.00197,499.67121L120.24198,499.67121
				L120.48198,499.67121L120.72199,499.43121L120.96199,499.43121L120.96199,499.19122L121.20199,499.19122L121.442,499.19122L121.682,498.95122
				L121.92201,498.95122L122.16201,498.71123L122.40201,498.71123L122.64202,498.47123L122.88202,498.47123L123.12202,498.47123
				L123.12202,498.23124L123.36203,498.23124L123.60203,498.23124L123.84204,498.23124L123.84204,497.99124L124.08204,497.99124
				L124.32204,497.75124L124.56205,497.75124L124.80205,497.75124L125.04206,497.51125L125.28206,497.51125L125.52206,497.27125
				L125.76207,497.27125L125.76207,497.03126L126.00207,497.03126L126.24208,497.03126L126.48208,496.79126L126.72208,496.55126
				L126.96209,496.55126L127.20209,496.31127L127.4421,496.07127L127.6821,495.83128L127.9221,495.59128L128.16211,495.59128L128.16211,495.35129
				L128.40211,495.35129L128.40211,495.11129L128.64212,495.11129L128.64212,494.87129L128.88212,494.87129L129.12212,494.6313L
				129.36213,494.6313L129.60213,494.3913L129.84214,494.3913L129.84214,494.15131L130.08214,494.15131L130.32214,494.15131L130.32214,493.91131
				L130.56215,493.91131L130.80215,493.67132L131.04216,493.43132L131.28216,493.43132L131.28216,493.19132L131.52216,493.19132
				L131.76217,492.95133L132.00217,492.71133L132.00217,492.47134L132.24217,492.47134L132.24217,492.23134L132.48218,491.99135
				L132.24217,491.51135L132.48218,491.27136L132.48218,491.03136L132.48218,490.55137L132.48218,490.31137L132.48218,490.07138
				L132.48218,489.59139L132.48218,489.35139L132.48218,489.1114L132.48218,488.8714L132.24217,488.6314L132.00217,488.6314L131.76217,488.6314
				L131.52216,488.6314L131.52216,488.39141L131.28216,488.39141L131.28216,488.15141L131.04216,488.15141L131.04216,487.91142L
				131.04216,487.67142L131.04216,487.43143L131.28216,487.43143L131.28216,487.19143L131.52216,487.19143L131.52216,486.95143L
				131.76217,486.95143L132.00217,486.71144L132.24217,486.71144L132.24217,486.47144L132.48218,486.47144L132.96219,486.23145L
				133.44219,486.23145L133.6822,485.99145L133.9222,485.99145L134.16221,485.99145L134.40221,485.99145L134.64221,485.99145L134.64221,485.75145
				L134.64221,485.51146L134.88222,485.51146L135.12222,485.27146L135.36223,485.27146L135.60223,485.27146L135.84223,485.27146
				L136.32224,485.51146L136.56225,485.51146L136.80225,485.51146L136.80225,485.75145L137.04225,485.75145L137.28226,485.51146
				L137.52226,485.51146L137.76227,485.51146L138.00227,485.27146L138.24227,485.27146L138.48228,485.27146L138.48228,485.03147
				L138.72228,485.03147L138.96229,485.03147L139.20229,484.79147L139.44229,484.55148L139.6823,484.55148L139.9223,484.55148L140.1623,484.55148
				L140.40231,484.55148L140.64231,484.79147L140.88232,484.79147L141.12232,484.79147L141.36232,484.79147L141.36232,484.55148
				L141.60233,484.31148L141.60233,484.07148L141.84233,484.07148L141.84233,483.83149L142.08234,483.59149L142.08234,483.3515L
				142.32234,483.3515L142.32234,483.1115L142.56234,483.1115L142.80235,482.87151L143.04235,482.87151L143.28236,482.63151L143.52236,482.39151
				L143.52236,482.15152L144.00237,481.91152L144.24237,481.67153L144.48238,481.67153L144.48238,481.43153L144.72238,481.43153
				L144.72238,481.19154L144.96238,481.19154L144.96238,480.95154L144.96238,480.71154L144.96238,480.47155L144.72238,480.23155
				L144.72238,479.99156L144.72238,479.75156L144.48238,479.75156L144.48238,479.51156L144.24237,479.27157L144.00237,479.03157
				L143.76236,478.79158L143.52236,478.79158L143.28236,478.55158L143.04235,478.31159L142.80235,478.31159L142.56234,478.07159
				L142.32234,477.83159L141.84233,477.5916L141.60233,477.3516L141.36232,477.3516L141.12232,477.11161L140.88232,477.11161L140.88232,476.87161
				L140.64231,476.87161L140.64231,476.63162L140.40231,476.63162L140.1623,476.39162L139.9223,476.39162L139.6823,476.39162L139.44229,476.39162
				L139.20229,476.39162L138.96229,476.39162L138.72228,476.39162L138.72228,476.63162L138.48228,476.63162L137.76227,476.15162
				L137.52226,475.91163L137.28226,475.91163L137.28226,475.67163L137.04225,475.67163L137.04225,475.43164L136.80225,475.43164
				L136.80225,475.19164L136.56225,474.95164L136.32224,474.71165L136.08224,474.71165L135.84223,474.47165L135.60223,474.47165
				L135.60223,474.23166L135.60223,473.99166L135.36223,473.99166L135.12222,473.99166L134.88222,473.99166L134.88222,474.23166
				L134.64221,474.23166L134.40221,474.23166L134.16221,474.47165L133.9222,474.47165L133.6822,474.47165L133.44219,474.47165L133.20219,474.47165
				L132.96219,474.47165L132.72218,474.47165L132.72218,474.23166L132.48218,474.23166L132.24217,474.23166L132.00217,474.23166
				L131.76217,474.23166L131.52216,474.23166L131.28216,473.99166L131.04216,473.99166L131.04216,473.75167L130.80215,473.75167
				L130.80215,473.51167L130.56215,473.51167L130.56215,473.27167L130.32214,473.27167L130.32214,473.03168L130.32214,472.79168
				L130.32214,472.55169L130.56215,472.55169L130.56215,472.31169L130.80215,472.31169L131.04216,472.0717L131.28216,472.0717L131.52216,471.8317
				L131.52216,471.5917L131.76217,471.35171L131.76217,471.11171L132.00217,470.87172L132.00217,470.63172L132.24217,470.63172L
				132.48218,470.39173L132.72218,470.39173L132.96219,470.15173L133.20219,470.15173L133.44219,470.15173L133.6822,469.91173L133.9222,469.91173
				L134.16221,469.67174L134.40221,469.43174L134.40221,469.19175L134.64221,469.19175L134.64221,468.95175L134.88222,468.71175
				L134.88222,468.47176L135.12222,468.23176L135.12222,467.99177L135.12222,467.75177L135.36223,467.51178L135.36223,467.27178
				L135.36223,467.03178L135.12222,466.79179L134.88222,466.55179L134.88222,466.3118L134.64221,466.0718L134.88222,466.0718L134.88222,465.83181
				L135.12222,465.83181L135.12222,465.59181L135.36223,465.59181L135.36223,465.35181L135.60223,465.35181L135.60223,465.11182
				L135.84223,465.11182L136.08224,465.11182L136.32224,464.87182L136.56225,464.87182L136.80225,464.63183L137.04225,464.63183
				L137.04225,464.39183L137.28226,464.15183L137.28226,463.91184L137.28226,463.67184L137.52226,463.19185L137.52226,462.95186
				L137.52226,462.71186L137.76227,462.71186L137.76227,462.47186L137.76227,462.23187L137.76227,461.99187L138.00227,461.99187
				L138.00227,461.51188L138.24227,461.27189L138.48228,461.03189L138.72228,460.79189L138.96229,460.79189L138.96229,460.5519L
				139.20229,460.3119L139.20229,460.07191L139.44229,459.83191L139.44229,459.59192L139.44229,459.35192L139.6823,459.35192L139.6823,459.11192
				L139.9223,459.11192L140.1623,459.35192L140.40231,459.35192L140.64231,459.59192L140.88232,459.59192L141.12232,459.59192L141.12232,459.83191
				L141.36232,459.83191L141.36232,459.59192L141.60233,459.59192L141.60233,459.35192L141.60233,459.11192L141.84233,458.87193
				L142.08234,458.87193L142.08234,458.63193L142.32234,458.63193L142.56234,458.39194L142.80235,458.39194L142.80235,458.15194
				L143.04235,457.91194L143.28236,457.67195L143.28236,457.43195L143.52236,457.43195L143.52236,457.19196L143.76236,456.95196
				L143.76236,456.71197L144.00237,456.23197L144.24237,455.75198L144.24237,455.51199L144.48238,455.032L144.72238,455.032L144.72238,454.792
				L144.96238,454.792L145.44239,453.83202L145.6824,453.59202L145.9224,453.35202L146.1624,453.35202L146.40241,453.35202L146.64241,453.35202
				L146.88242,453.35202L147.12242,453.59202L147.36242,453.83202L147.60243,454.07201L147.84243,454.07201L148.32244,454.07201
				L148.32244,453.83202L148.56244,453.83202L149.04245,453.83202L149.28245,453.59202L150.00247,453.35202L150.24247,453.11203
				L150.24247,452.63204L150.24247,452.39204L150.48247,452.39204L150.48247,452.15205L150.72248,452.15205L150.96248,452.15205
				L151.20249,452.15205L151.44249,451.91205L151.68249,451.91205L151.9225,451.91205L152.1625,451.91205L152.40251,451.91205L152.64251,451.91205
				L152.88251,451.91205L153.12252,451.91205L153.36252,451.91205L153.60253,451.67205L153.84253,451.67205L153.84253,451.43206
				L154.08253,451.19206L154.32254,450.95207L154.32254,450.71207L154.80255,450.23208L155.04255,449.99208L155.52256,449.75209
				L155.76256,449.75209L156.00257,449.99208L156.24257,449.99208L156.24257,450.23208L156.48257,450.47208L156.48257,450.71207
				L156.48257,450.95207L156.48257,451.19206L156.72258,451.43206L156.72258,451.67205L156.96258,451.91205L157.20259,452.15205
				L157.44259,452.15205L157.68259,452.15205L157.9226,452.15205L158.1626,452.39204L158.88261,452.39204L159.12262,452.39204L159.36262,452.39204
				L159.60262,452.39204L160.08263,452.63204L160.56264,452.63204L160.80264,452.63204L161.04265,452.63204L161.04265,452.39204
				L161.28265,452.39204L161.52266,452.39204L161.76266,452.63204L161.76266,452.87203L162.00266,452.87203L162.00266,452.63204
				L162.24267,452.63204L162.24267,452.39204L162.24267,452.15205L162.48267,452.15205L162.48267,451.91205L162.72268,451.91205
				L162.96268,451.91205L163.20268,451.91205L163.44269,451.91205L163.44269,451.67205L163.68269,451.67205L163.9227,451.91205L
				164.1627,451.91205L164.4027,451.91205L164.4027,451.67205L164.64271,451.67205L164.64271,451.43206L164.64271,451.19206L164.64271,450.95207
				L164.88271,450.71207L164.88271,450.47208L165.12272,450.23208L165.12272,449.99208L165.36272,449.75209L165.60272,449.75209
				L165.84273,449.75209L165.84273,449.99208L166.08273,449.99208L166.32274,450.23208L166.56274,450.47208L166.80274,450.47208
				"/>
			<path clip-path="url(#SVG_CP_1)" fill="none" stroke="#000000" stroke-width="0.48001" stroke-miterlimit="10" stroke-linecap="round" stroke-linejoin="round" d="
				M166.80274,450.47208L167.04275,450.47208L167.28275,450.47208L167.76276,450.47208L168.24277,450.71207L168.24277,450.47208
				L168.48277,450.47208L168.72277,450.71207L168.96278,450.71207L169.20278,450.71207L169.20278,450.95207L169.44279,451.19206
				L169.68279,451.19206L169.68279,451.43206L170.1628,451.67205L170.4028,451.91205L170.88281,451.91205L171.12281,451.91205L171.36282,451.91205
				L171.60282,451.91205L172.08283,451.91205L172.32283,451.91205L172.56284,451.91205L172.80284,452.15205L173.04285,452.15205
				L173.28285,452.39204L173.52285,452.63204L174.00286,452.87203L174.24287,452.87203L174.72287,452.87203L175.20288,452.87203
				L175.44289,453.11203L175.68289,453.11203L175.92289,453.11203L176.1629,453.11203L176.6429,453.35202L176.88291,453.35202L177.12291,453.35202
				L177.36292,453.35202L177.60292,453.35202L178.32293,453.59202L178.56294,453.59202L178.80294,453.83202L179.04294,453.83202
				L179.28295,453.83202L179.52295,453.83202L179.52295,453.59202L179.76296,453.59202L180.00296,453.35202L180.24296,453.11203
				L180.48297,452.87203L180.72297,452.63204L180.72297,452.39204L180.96298,452.39204L181.20298,452.39204L181.44298,452.39204
				L181.44298,452.15205L181.44298,451.91205L181.44298,451.67205L181.44298,451.43206L181.44298,451.19206L181.44298,450.95207
				L181.44298,450.71207L181.44298,450.47208L181.44298,450.23208L181.20298,449.99208L180.96298,449.75209L180.72297,449.75209
				L180.24296,449.51209L179.76296,449.2721L179.52295,449.0321L179.28295,449.0321L179.28295,448.79211L179.04294,448.79211L179.04294,448.55211
				L179.04294,448.31211L179.04294,448.07212L178.80294,447.83212L178.56294,447.59213L178.32293,447.59213L178.08293,447.59213
				L177.60292,447.59213L176.6429,447.59213L176.4029,447.59213L175.92289,447.59213L175.68289,447.59213L175.44289,447.59213L174.96288,447.59213
				L174.72287,447.59213L174.48287,447.59213L174.48287,447.35213L174.24287,447.35213L173.76286,447.11213L173.52285,447.11213
				L173.52285,446.87214L173.52285,446.63214L173.28285,446.15215L173.28285,445.91216L173.04285,445.67216L172.80284,445.43216
				L172.56284,445.43216L172.08283,445.19217L171.60282,444.95217L171.12281,444.71218L170.88281,444.71218L170.4028,444.47218L
				170.1628,444.47218L169.68279,444.47218L169.68279,444.23219L169.44279,444.23219L169.68279,443.99219L169.68279,443.75219L169.92279,443.5122
				L169.92279,443.2722L169.92279,443.03221L170.1628,442.79221L170.4028,442.31222L170.64281,442.31222L170.88281,441.83223L170.88281,441.59223
				L171.36282,440.87224L172.08283,439.91226L172.32283,439.43227L172.56284,439.19227L172.80284,439.19227L172.80284,438.95228
				L173.04285,438.95228L173.28285,438.95228L173.52285,438.95228L173.52285,438.71228L173.76286,438.47229L173.76286,438.23229
				L174.00286,437.9923L174.00286,437.7523L174.24287,437.5123L174.24287,437.27231L174.48287,437.27231L174.48287,437.03231L174.72287,436.79232
				L174.96288,436.55232L175.68289,436.07233L175.92289,435.83233L176.4029,435.59234L176.6429,435.35234L176.6429,435.11235L176.88291,435.11235
				L176.88291,434.87235L177.12291,434.63235L177.12291,434.39236L177.36292,434.15236L177.60292,434.15236L177.84292,434.15236
				L178.08293,434.15236L178.32293,434.15236L178.56294,434.15236L178.80294,434.15236L178.80294,433.91237L179.04294,433.91237
				L179.04294,433.67237L179.28295,433.43238L179.28295,433.19238L179.28295,432.95238L179.52295,432.95238L179.76296,432.95238
				L180.00296,432.95238L180.24296,432.71239L180.48297,432.71239L180.72297,432.47239L180.96298,432.47239L180.96298,432.2324L
				180.96298,431.9924L180.96298,431.27241L181.44298,430.55243L181.68299,430.31243L181.92299,430.31243L182.88301,430.31243L183.36302,430.55243
				L183.12301,430.31243L182.88301,429.11245L182.88301,428.87246L183.84302,428.39246L183.84302,428.63246L184.08303,428.63246
				L184.32303,428.87246L184.56304,428.87246L185.04304,428.15247L185.52305,427.43248L186.48307,427.67248L187.20308,427.91247
				L187.44308,427.91247L187.68309,428.15247L188.6431,428.63246L189.60312,428.63246L191.28315,429.11245L191.52315,429.11245L
				192.00316,428.63246L192.48317,428.15247L193.20318,430.55243L193.44318,429.11245L193.68318,428.15247L193.92319,428.15247L
				195.84322,428.39246L194.4032,427.19249L194.4032,426.95249L194.6432,426.71249L194.8832,426.2325L194.8832,425.99251L195.12321,425.75251
				L195.36321,425.51251L195.36321,425.27252L195.60322,425.03252L195.60322,424.79253L195.60322,424.55253L195.36321,424.07254
				L195.36321,423.83254L195.12321,423.83254L195.12321,423.59255L195.12321,423.35255L195.12321,423.11256L195.12321,422.87256
				L195.36321,422.87256L195.36321,422.63257L195.60322,422.39257L195.84322,422.15257L196.08322,422.15257L196.32323,421.91258
				L197.04324,421.67258L197.28324,421.43259L197.52325,421.19259L197.52325,420.95259L197.52325,420.7126L197.76325,420.4726L198.00326,420.23261
				L198.24326,419.99261L198.48326,419.99261L198.48326,419.75262L198.48326,419.51262L198.72327,419.51262L198.72327,419.27262
				L198.96327,419.27262L198.96327,419.03263L199.20328,419.03263L199.68328,419.03263L199.68328,418.79263L199.92329,418.79263
				L200.4033,418.79263L200.6433,418.79263L200.8833,418.79263L200.8833,418.55264L201.12331,418.55264L201.12331,418.31264L201.36331,418.31264
				L201.60332,418.07265L201.60332,417.83265L201.84332,417.83265L201.84332,417.59265L201.84332,417.35266L201.60332,417.35266
				L201.60332,417.11266L201.36331,416.87267L201.36331,416.63267L201.36331,416.39268L201.60332,416.39268L201.60332,416.15268
				L201.84332,416.15268L201.84332,415.91268L202.32333,415.91268L202.56333,415.67269L202.80333,415.43269L203.04334,415.43269
				L203.28334,415.1927L203.28334,414.9527L203.52335,414.7127L203.52335,414.47271L203.76335,413.99272L204.00335,413.27273L204.24336,413.03273
				L204.24336,412.79274L204.48336,412.79274L204.72337,412.55274L204.96337,412.55274L205.20337,412.31275L205.44338,412.07275
				L205.68338,411.83276L205.92339,411.83276L206.40339,411.59276L206.8834,411.59276L207.36341,411.35276L207.60341,411.11277L
				207.60341,410.87277L207.84342,410.87277L207.60341,410.87277L207.60341,410.63278L207.36341,410.39278L207.12341,410.39278L
				206.8834,409.91279L206.6434,409.91279L206.40339,409.67279L205.92339,409.1928L205.44338,408.95281L205.20337,408.71281L204.96337,408.71281
				L204.72337,408.71281L204.72337,408.47281L204.24336,408.47281L204.00335,408.47281L203.76335,408.47281L203.76335,408.23282
				L203.52335,408.23282L203.52335,407.99282L203.28334,407.99282L203.28334,407.75283L203.28334,407.51283L203.28334,407.03284
				L203.28334,406.79284L203.28334,406.55285L203.28334,406.31285L203.28334,406.07286L203.28334,405.83286L203.28334,405.59287
				L203.28334,405.35287L203.04334,404.87288L202.80333,404.39289L202.56333,403.91289L202.56333,403.6729L202.32333,403.4329L202.08332,402.95291
				L202.08332,402.71292L202.08332,402.47292L202.32333,402.47292L202.56333,402.23292L202.80333,401.99293L203.04334,401.99293
				L203.52335,401.51294L204.00335,401.27294L204.24336,401.27294L204.48336,401.03295L204.72337,400.79295L204.96337,400.55295
				L205.20337,400.31296L205.20337,400.07296L205.20337,399.83297L204.96337,399.59297L204.96337,399.35297L204.72337,399.11298
				L204.72337,398.87298L204.48336,398.87298L204.24336,398.87298L204.00335,398.63299L203.76335,398.63299L203.52335,398.63299
				L203.28334,398.63299L203.04334,398.63299L202.56333,398.63299L202.32333,398.63299L202.08332,398.39299L201.84332,398.39299
				L201.60332,398.39299L201.36331,398.39299L201.12331,398.39299L200.8833,398.39299L200.6433,398.153L200.6433,397.913L200.4033,397.913
				L200.4033,397.673L200.6433,397.19301L200.6433,396.95302L200.6433,396.71302L200.6433,396.47303L200.4033,396.47303L200.16329,396.23303
				L200.16329,395.99303L199.92329,395.99303L199.68328,395.75304L199.68328,395.51304L199.44328,395.51304L199.20328,395.27305
				L199.20328,395.03305L198.96327,394.79306L198.96327,394.55306L198.72327,394.07307L198.72327,393.83307L198.48326,393.59308
				L198.24326,393.35308L198.00326,393.11308L197.76325,392.63309L197.52325,392.3931L197.28324,392.1531L197.04324,392.1531L197.04324,391.91311
				L197.28324,391.67311L197.52325,391.67311L197.76325,391.67311L197.76325,391.43311L197.76325,391.19312L198.00326,391.19312
				L198.00326,390.95312L198.24326,390.95312L198.48326,390.95312L198.48326,390.71313L198.72327,390.71313L198.72327,390.47313
				L198.96327,390.23314L199.20328,389.99314L199.44328,389.75314L199.68328,389.27315L199.68328,389.03316L199.68328,388.79316
				L199.92329,388.79316L199.92329,388.31317L199.92329,388.07317L199.92329,387.59318L199.92329,387.11319L199.68328,386.87319
				L199.68328,386.6332L199.68328,386.3932L199.44328,386.3932L199.20328,386.15321L198.96327,386.15321L198.72327,386.15321L198.48326,385.91321
				L198.24326,385.91321L198.00326,385.91321L197.76325,385.91321L197.52325,385.91321L197.52325,385.67322L197.52325,385.43322
				L197.28324,385.43322L197.28324,385.19322L197.04324,385.19322L196.80324,385.19322L196.56323,385.43322L196.56323,385.67322
				L196.32323,385.67322L196.32323,385.43322L196.32323,385.19322L196.08322,384.95323L195.84322,384.71323L195.60322,384.71323
				L195.36321,384.71323L195.36321,384.47324L195.12321,384.47324L195.12321,384.23324L195.36321,383.99325L195.12321,383.75325
				L194.8832,383.75325L194.8832,383.51325L194.6432,383.27326L194.4032,383.27326L194.16319,383.27326L193.92319,383.27326L193.68318,383.27326
				L193.44318,383.51325L193.44318,383.27326L193.20318,383.27326L192.96317,383.03326L192.72317,383.03326L192.72317,382.79327
				L192.48317,382.79327L192.48317,382.55327L192.24316,382.55327L192.00316,382.55327L191.76315,382.31327L191.52315,382.31327
				L191.28315,382.31327L191.04314,382.31327L190.80314,382.07328L190.56313,382.07328L190.32313,382.07328L190.08313,382.07328
				L190.08313,381.83328L189.84312,381.83328L189.60312,381.83328L189.60312,381.59329L189.60312,381.35329L189.36311,381.35329
				L189.36311,381.1133L189.36311,380.8733L189.12311,380.8733L189.12311,380.6333L189.12311,380.39331L189.12311,380.15331L189.12311,379.91332
				L188.88311,379.91332L188.6431,379.91332L188.4031,379.91332L188.16309,379.67332L187.92309,379.67332L187.92309,379.43333L187.68309,379.19333
				L187.68309,378.95333L187.68309,378.47334L187.68309,378.23335L187.68309,377.99335L187.92309,377.75335L187.92309,377.51336
				L187.92309,377.27336L187.92309,377.03337L187.68309,376.79337L187.44308,376.79337L186.96307,377.03337L186.48307,377.03337
				L185.52305,376.55338L185.04304,376.55338L184.32303,376.55338L183.60302,376.79337L183.36302,376.79337L183.36302,377.03337
				L182.643,377.27336L182.163,377.51336L181.92299,377.51336L181.92299,377.75335L181.44298,377.75335L180.96298,377.75335L180.72297,377.75335
				L180.24296,377.75335L180.00296,377.75335L179.76296,377.75335L179.52295,377.75335L179.04294,377.99335L178.80294,377.75335
				L178.56294,377.51336L178.32293,377.51336L178.32293,377.27336L178.08293,377.27336L177.84292,377.27336L177.60292,377.51336
				L177.36292,377.51336L177.36292,377.75335L177.12291,377.75335L176.88291,377.75335L176.6429,377.75335L176.4029,377.75335L175.92289,377.75335
				L175.68289,377.75335L175.68289,377.51336L175.44289,377.51336L175.20288,377.27336L174.96288,377.03337L174.96288,376.79337
				L174.96288,376.55338L174.72287,376.31338L174.72287,376.07338L174.72287,375.83339L174.72287,375.59339L174.72287,375.3534L
				174.96288,375.3534L175.20288,375.1134L175.44289,374.87341L175.68289,374.87341L175.92289,374.87341L176.4029,374.63341L176.6429,374.63341
				L177.12291,374.63341L177.12291,374.39341L177.36292,374.39341L177.84292,374.15342L178.56294,373.91342L179.04294,373.91342
				L179.28295,373.67343L180.00296,373.43343L180.72297,372.95344L180.96298,372.71344L181.20298,372.71344L181.68299,372.47345
				L181.92299,372.23345L182.163,372.23345L182.403,372.23345L182.643,371.99346L182.88301,371.75346L183.36302,371.75346L183.60302,371.51346
				L183.84302,371.27347L184.08303,371.27347L184.32303,371.27347L184.32303,371.03347L184.32303,370.79348L184.32303,370.55348
				L184.32303,370.31349L184.08303,370.07349L183.84302,369.83349L183.84302,369.5935L183.60302,369.5935L183.36302,369.3535L183.12301,369.11351
				L183.12301,368.87351L182.88301,368.63352L182.88301,368.15352L182.88301,367.91353L182.88301,367.67353L182.88301,367.43354
				L182.88301,367.19354L183.12301,366.95354L183.12301,366.71355L183.36302,366.71355L183.36302,366.47355L183.12301,366.23356
				L183.12301,365.99356L183.36302,365.75357L183.60302,365.75357L183.84302,365.51357L184.08303,365.51357L184.32303,365.51357
				L184.56304,365.75357L184.80304,365.75357L185.04304,365.99356L185.28305,365.99356L185.52305,366.23356L185.76305,366.23356
				L186.00306,366.47355L186.00306,366.71355L186.00306,366.95354L186.24306,367.43354L186.48307,367.43354L186.72307,367.43354
				L186.96307,367.67353L187.20308,367.67353L187.68309,367.67353L187.92309,367.67353L188.16309,367.67353L188.4031,367.67353L
				188.6431,367.67353L188.88311,367.43354L188.88311,367.19354L189.12311,367.19354L189.12311,366.95354L189.12311,366.71355L189.36311,366.23356
				L189.36311,365.99356L189.36311,365.51357L189.36311,365.27357L189.36311,364.79358L189.36311,364.55359L189.36311,364.31359
				L189.36311,364.0736L189.36311,363.8336L189.60312,363.8336L189.60312,363.5936L189.60312,363.35361L189.60312,363.11361L189.60312,362.87362
				L189.60312,362.63362L189.36311,362.63362L189.12311,362.63362L188.88311,362.87362L188.6431,362.87362L188.4031,362.87362L188.16309,363.11361
				L187.68309,363.35361L187.44308,363.35361L187.44308,363.5936L187.20308,363.5936L186.96307,363.8336L186.72307,364.0736L186.48307,364.31359
				L186.24306,364.55359L186.00306,364.79358L185.76305,364.79358L185.52305,364.79358L185.28305,364.79358L185.28305,364.55359
				L185.04304,364.31359L184.80304,364.31359L184.56304,364.0736L184.32303,363.8336L183.84302,363.5936L183.60302,363.5936L183.36302,363.35361
				L183.12301,363.35361L182.88301,363.11361L182.643,363.11361L182.403,363.11361L182.163,363.35361L181.92299,363.35361L181.68299,363.35361
				L181.44298,363.35361L180.96298,363.11361L180.72297,363.11361L180.48297,362.87362L180.24296,362.63362L179.76296,362.39363
				L179.28295,361.91363L179.04294,361.91363L178.56294,361.67364L178.56294,361.43364L178.32293,361.19365L178.08293,361.19365
				L178.08293,360.95365L177.84292,360.71365L177.60292,360.71365L177.60292,360.47366L177.36292,359.99367L177.12291,359.75367
				L176.88291,359.75367L176.88291,359.51368L177.12291,359.27368L177.12291,359.03368L177.12291,358.79369L176.88291,358.55369
				L176.6429,358.3137L176.4029,358.0737L176.4029,357.83371L176.4029,357.59371L176.1629,357.59371L175.44289,357.35371L174.96288,357.35371
				L174.96288,357.11372L174.24287,357.11372L174.00286,357.11372L173.52285,357.11372L173.28285,357.11372L173.04285,357.11372
				L172.80284,357.35371L172.56284,357.59371L172.32283,357.83371L172.32283,358.0737L172.08283,358.3137L172.08283,358.55369L171.84283,358.79369
				L171.84283,359.03368L171.60282,359.03368L171.84283,359.27368L171.84283,359.51368L171.84283,359.75367L172.08283,359.99367
				L172.32283,360.23366L172.32283,360.47366L172.08283,360.47366L172.08283,360.71365L171.84283,360.95365L171.84283,361.19365
				L171.84283,361.43364L171.84283,361.67364L171.60282,361.67364L171.60282,361.91363L171.36282,362.15363L171.12281,362.15363
				L171.12281,362.39363L171.12281,362.63362L170.88281,362.63362L170.64281,362.87362L170.4028,362.87362L170.4028,363.11361L170.1628,363.11361
				L170.1628,363.35361L169.92279,363.11361L169.68279,363.11361L169.68279,362.87362L169.68279,363.11361L169.44279,363.11361L
				169.20278,363.35361L168.96278,363.35361L168.72277,363.35361L168.48277,363.35361L168.00276,363.35361L167.76276,363.35361L
				167.76276,363.5936L167.52275,363.5936L167.28275,363.5936L167.28275,363.35361L167.04275,363.35361L166.80274,363.35361L166.80274,363.11361
				L166.56274,363.11361L166.32274,362.87362L166.08273,362.87362L165.84273,362.87362L165.60272,362.87362L165.36272,362.87362
				L165.36272,362.63362L165.12272,362.63362L165.12272,362.87362L164.88271,362.87362L164.88271,363.11361L164.64271,363.11361
				L164.4027,362.87362L164.4027,363.11361L164.4027,363.35361L164.4027,363.5936L164.1627,363.5936L163.9227,363.5936L163.9227,363.35361
				L163.68269,363.35361L163.44269,363.35361L163.20268,363.35361L163.20268,363.5936L163.20268,363.8336L162.96268,363.5936L162.72268,363.35361
				L162.48267,363.35361L162.24267,363.11361L162.00266,363.11361L161.76266,363.11361L161.52266,363.11361L161.28265,363.11361
				L161.28265,362.87362L161.04265,362.63362L160.80264,362.63362L160.56264,362.63362L160.32264,362.39363L160.08263,362.63362
				L159.84263,362.63362L159.60262,362.63362L159.60262,362.39363L159.36262,362.39363L159.12262,362.39363L158.88261,362.39363
				L158.88261,362.63362L158.4026,362.63362L158.1626,362.63362L158.1626,362.87362L157.9226,362.87362L157.68259,362.87362L157.68259,363.11361
				L157.68259,363.35361L157.44259,363.35361L157.20259,363.35361L156.96258,363.35361L156.72258,363.35361L156.48257,363.11361
				L156.24257,363.11361L156.24257,362.87362L155.76256,362.87362L155.52256,362.87362L155.28255,362.87362L155.04255,362.87362
				L154.80255,362.87362L154.56254,362.87362L154.56254,362.63362L154.32254,362.63362L154.08253,362.63362L153.84253,362.63362
				L153.60253,362.63362L153.36252,362.63362L153.12252,362.39363L152.88251,362.39363L152.88251,362.15363L152.64251,362.15363
				L152.40251,362.15363L152.1625,362.15363L152.1625,361.91363L151.9225,361.91363L151.68249,361.91363L151.44249,361.91363L151.44249,362.15363
				L151.20249,362.15363L151.20249,362.39363L150.96248,362.39363L150.96248,362.63362L150.72248,362.63362L150.72248,362.87362
				L150.48247,362.87362L150.24247,362.87362L150.00247,362.87362L150.00247,362.63362L149.76246,362.63362L149.52246,362.63362
				L149.28245,362.63362L149.04245,362.63362L149.04245,362.39363L148.80245,362.63362L148.80245,362.87362L148.56244,362.87362
				L148.56244,363.11361L148.32244,363.35361L148.08244,363.11361L148.08244,363.35361L147.84243,363.35361L147.60243,363.11361
				L147.36242,362.87362L147.36242,363.11361L147.12242,363.11361L146.88242,363.11361L146.88242,362.87362L146.88242,362.63362
				L146.64241,362.87362L146.64241,363.11361L146.40241,363.35361L146.1624,363.35361L146.1624,363.11361L145.9224,362.87362L145.6824,362.87362
				L145.44239,362.87362L145.20239,362.87362L145.20239,363.11361L145.20239,362.87362L145.20239,362.63362L144.96238,362.63362
				L144.72238,362.63362L144.72238,362.87362L144.48238,362.87362L144.24237,362.87362L144.00237,362.87362L144.00237,363.11361
				L143.76236,363.11361L143.76236,363.35361L144.00237,363.35361L143.76236,363.35361L143.52236,363.35361L143.28236,363.35361
				L143.04235,363.35361L142.80235,363.35361L142.80235,363.11361L142.56234,363.35361L142.32234,363.35361L142.08234,363.35361
				L141.84233,363.35361L141.84233,363.5936L141.60233,363.5936L141.60233,363.35361L141.84233,363.11361L141.60233,363.11361L141.36232,363.11361
				L141.36232,363.35361L141.12232,363.35361L141.12232,363.11361L140.88232,363.11361L140.64231,363.11361L140.64231,362.87362
				L140.64231,362.63362L140.40231,362.63362L140.40231,362.39363L140.40231,362.63362L140.1623,362.63362L139.9223,362.39363L139.6823,362.39363
				L139.44229,362.39363L139.44229,362.15363L139.20229,362.15363L139.20229,361.91363L138.96229,361.91363L138.72228,361.91363
				L138.48228,361.67364L138.72228,361.67364L138.72228,361.43364L138.48228,361.43364L138.24227,361.43364L138.24227,361.67364
				L138.00227,361.67364L137.76227,361.67364L137.52226,361.67364L137.28226,361.67364L137.04225,361.67364L137.04225,361.43364
				L137.04225,361.19365L137.04225,360.95365L136.80225,360.95365L136.56225,360.95365L136.32224,360.71365L136.08224,360.71365
				L136.08224,360.95365L135.84223,360.95365L135.84223,361.19365L136.08224,361.43364L136.08224,361.67364L135.84223,361.67364
				L134.88222,359.03368L133.6822,355.91374L132.96219,354.47376L132.72218,354.47376L132.00217,352.79379L131.28216,350.87383L
				131.28216,349.19386L131.04216,348.95386L131.04216,347.99388L131.28216,347.0339L130.56215,345.59392L127.4421,339.59403L126.00207,335.99409
				L124.56205,331.91416L125.28206,330.95418L125.52206,330.23419L125.04206,328.79422L125.28206,328.31422L125.28206,328.07423
				L124.80205,325.43428L125.52206,322.79432L125.76207,322.55433L126.00207,322.31433L126.72208,321.83434L127.20209,321.35435
				L127.20209,320.63436L126.96209,318.71439L126.48208,316.31444L125.76207,315.35445L126.00207,314.87446L126.72208,313.67448
				L126.96209,312.4745L126.48208,311.03453L126.48208,310.55454L126.48208,309.83455L126.96209,309.59455L126.96209,309.35456L
				127.4421,308.63457L127.9221,308.63457L128.64212,307.43459L129.12212,305.99462L130.32214,304.79464L130.56215,304.07465L130.32214,303.11467
				L130.56215,302.39468L133.20219,300.95471L133.6822,300.23472L133.9222,299.51473L133.44219,297.83476L132.96219,295.91479L132.24217,294.71482
				L130.80215,292.55485L130.80215,292.31486L131.04216,292.07486L132.00217,291.59487L132.24217,291.59487L132.96219,291.59487
				L133.44219,292.07486L134.16221,293.03485L134.64221,293.27484L134.88222,293.03485L134.64221,292.79485L134.40221,292.79485
				L133.9222,291.83487L132.72218,291.35487L131.76217,291.35487L131.28216,291.59487L130.32214,291.83487"/>
			<path clip-path="url(#SVG_CP_1)" fill="none" stroke="#000000" stroke-width="0.48001" stroke-miterlimit="10" stroke-linecap="round" stroke-linejoin="round" d="
				M130.32214,291.83487L130.08214,291.11488L129.84214,290.1549L130.32214,287.03495L129.84214,282.47503L129.84214,280.55506L
				129.84214,279.11509L129.36213,277.19512L129.12212,275.75515L129.12212,275.51515L129.60213,275.03516L129.60213,274.79517L
				124.80205,270.47524L124.80205,270.23525L123.12202,269.03527L120.72199,267.83529L119.28196,266.87531L118.56195,266.63531L
				118.32195,266.39531L118.56195,266.15532L119.04196,265.67533L119.04196,265.43533L118.56195,265.43533L117.84194,265.67533L
				115.92191,265.43533L115.4419,265.43533L115.20189,265.43533L115.20189,265.67533L114.24188,266.15532L114.00187,266.15532L113.76187,265.91532
				L113.28186,265.43533L112.56185,265.43533L112.32185,264.95534L112.32185,264.71534L112.56185,264.71534L113.28186,263.99536
				L113.76187,262.79538L113.52187,261.83539L113.52187,261.5954L113.28186,261.3554L111.60184,260.87541L111.60184,260.63542L111.36183,260.15542
				L109.4418,258.95544L109.4418,258.47545L110.64182,257.27547L110.16181,256.55549L109.6818,256.55549L108.72179,256.79548L108.72179,257.03548
				L108.24178,257.03548L108.00178,257.03548L107.76177,257.03548L107.52177,256.79548L107.52177,256.55549L107.76177,256.31549
				L108.00178,256.31549L108.24178,256.31549L108.96179,256.31549L109.2018,256.0755L109.6818,255.8355L109.92181,255.8355L110.40182,255.8355
				L110.64182,256.0755L110.88182,256.0755L111.12183,256.0755L111.12183,255.8355L111.60184,255.35551L111.84184,255.11551L112.32185,255.11551
				L112.56185,254.63552L112.32185,254.15553L112.32185,253.91553L112.56185,253.91553L112.56185,253.67554L112.56185,253.43554
				L112.80186,253.43554L113.04186,253.43554L113.76187,253.91553L114.00187,253.43554L113.76187,252.95555L114.00187,252.47556
				L114.24188,252.23556L114.48188,251.03558L114.48188,250.3156L114.00187,249.35561L114.00187,248.87562L113.28186,248.39563L
				112.80186,247.91564L113.04186,247.43565L113.28186,246.95566L113.76187,246.47566L113.76187,246.23567L114.48188,245.99567L
				114.72189,245.75568L115.4419,245.75568L116.40191,245.51568L116.64192,244.79569L116.64192,244.5557L117.12193,244.3157L117.36193,244.07571
				L117.36193,243.83571L117.60193,243.59572L117.84194,243.11572L118.56195,242.87573L118.80195,242.39574L118.80195,242.15574
				L119.04196,242.15574L120.00197,241.43575L120.48198,239.75578L120.48198,239.51579L120.48198,239.27579L121.20199,238.7958L
				121.682,238.5558L121.682,237.59582L120.96199,235.91585L120.96199,235.19586L120.96199,234.47588L120.24198,233.51589L120.00197,232.07592
				L119.52197,231.59593L118.80195,230.63594L118.80195,230.15595L118.80195,229.91596L118.56195,229.43596L118.32195,229.19597
				L117.60193,228.47598L117.60193,228.23599L117.60193,227.99599L117.60193,227.75599L117.84194,227.03601L117.60193,226.79601
				L116.40191,227.03601L116.16191,226.79601L116.40191,226.55601L116.64192,226.55601L116.88192,226.31602L117.12193,226.31602
				L118.32195,226.07602L119.28196,226.79601L120.00197,226.79601L120.48198,227.03601L120.72199,227.03601L121.682,226.79601L122.64202,226.31602
				L123.12202,225.83603L123.60203,225.35604L123.84204,225.35604L124.08204,225.35604L124.56205,225.11604L125.28206,224.39605
				L126.00207,222.71608L126.48208,221.7561L127.20209,220.07613L127.4421,219.35614L127.9221,218.63615L128.64212,218.39616L129.12212,218.15616
				L129.60213,218.39616L129.60213,218.63615L130.08214,218.87615L130.80215,219.35614L131.76217,219.35614L132.00217,219.11615
				L132.48218,219.11615L133.9222,218.63615L134.40221,218.39616L134.88222,218.15616L137.28226,217.19618L137.76227,216.95618L
				138.00227,216.95618L138.24227,216.95618L138.48228,216.95618L138.72228,216.95618L138.96229,216.95618L139.6823,217.67617L139.9223,218.15616
				L140.40231,218.87615L140.40231,220.55612L139.6823,222.71608L139.6823,222.95608L139.6823,223.43607L139.9223,223.43607L139.9223,223.67607
				L140.1623,223.67607L140.40231,223.91606L141.60233,223.91606L141.84233,223.91606L142.80235,223.91606L143.04235,223.91606L
				143.52236,223.91606L146.1624,224.39605L148.80245,225.11604L150.96248,225.35604L151.68249,225.83603L152.88251,226.55601L153.12252,226.79601
				L153.84253,227.516L155.28255,230.39595L155.76256,230.63594L156.24257,230.87594L156.48257,230.87594L156.72258,230.87594L157.68259,229.91596
				L157.9226,229.19597L158.4026,228.71598L158.64261,227.516L158.64261,225.83603L158.88261,224.39605L159.12262,223.67607L159.12262,223.43607
				L159.12262,223.19607L158.88261,222.95608L158.4026,221.5161L158.1626,221.27611L158.88261,219.59614L159.84263,218.15616L160.08263,217.91617
				L160.08263,217.67617L160.80264,216.95618L161.04265,216.47619L161.52266,215.9962L161.76266,215.7562L162.48267,215.27621L163.44269,214.79622
				L164.88271,214.55623L165.12272,214.55623L165.36272,214.55623L166.32274,214.31623L166.56274,214.55623L166.80274,214.55623
				L167.04275,214.55623L167.28275,214.55623L168.48277,215.03622L168.96278,215.51621L169.20278,215.51621L169.68279,215.51621
				L169.92279,215.51621L170.1628,215.51621L171.36282,215.27621L171.60282,215.03622L172.08283,214.79622L172.08283,214.55623L
				171.84283,214.07623L171.60282,213.83624L170.88281,212.63626L171.12281,211.67628L171.12281,211.43628L171.36282,211.19629L
				171.60282,210.95629L171.84283,210.71629L172.80284,210.2363L173.04285,210.2363L173.28285,209.99631L175.44289,210.95629L176.4029,211.19629
				L177.12291,211.19629L177.84292,211.19629L179.04294,210.95629L179.76296,210.71629L180.24296,210.2363L180.72297,209.27632L
				180.48297,208.07634L180.48297,207.59635L180.48297,207.35635L180.72297,206.87636L181.68299,205.91638L181.92299,205.19639L
				181.92299,204.95639L181.92299,204.4764L181.68299,203.99641L181.44298,202.79643L181.44298,202.55644L182.163,201.35646L182.403,201.11646
				L181.92299,200.39648L181.44298,199.91648L181.20298,199.67649L180.96298,199.1965L180.96298,198.9565L180.96298,198.7165L180.96298,198.47651
				L180.48297,197.27653L180.48297,197.03653L181.68299,194.39658L181.20298,193.4366L180.00296,191.51663L180.48297,190.55665L
				180.48297,190.31665L180.72297,190.07666L180.96298,189.83666L181.20298,189.59667L181.20298,189.35667L181.44298,189.35667L
				181.92299,189.35667L182.163,189.35667L182.403,189.11667L182.643,189.11667L182.643,188.87668L182.88301,188.15669L182.88301,187.91669
				L182.403,186.71672L182.403,185.51674L182.88301,185.03675L183.84302,185.51674L184.08303,185.51674L184.80304,185.99673L185.52305,186.47672
				L186.48307,186.71672L186.72307,186.71672L189.12311,187.19671L189.60312,187.4367L189.84312,187.6767L190.08313,187.6767L190.32313,187.6767
				L190.32313,187.91669L190.56313,187.91669L191.28315,187.6767L191.76315,187.4367L192.00316,187.19671L192.00316,186.71672L192.48317,186.23672
				L192.48317,185.99673L192.48317,185.75673L192.72317,185.27674L192.72317,184.79675L192.96317,184.31676L193.20318,184.31676
				L193.68318,184.31676L194.4032,184.55675L194.8832,184.79675L195.36321,184.31676L195.60322,184.07676L196.32323,183.83677L197.28324,183.83677
				L197.76325,183.83677L198.00326,183.83677L198.48326,183.83677L200.16329,185.03675L202.56333,184.55675L203.04334,184.55675
				L203.52335,184.79675L203.76335,184.79675L204.00335,185.03675L205.92339,186.23672L206.8834,186.23672L207.36341,186.23672L
				207.60341,186.23672L207.84342,185.99673L209.52345,184.79675L209.76345,184.79675L211.20347,184.79675L212.16349,184.79675L
				213.36351,184.79675L214.32352,183.83677L216.24356,183.11678L216.48356,182.39679L216.72356,182.1568L216.72356,181.9168L216.00355,181.19681
				L215.52354,180.71682L215.28354,179.99683L215.28354,179.75684L215.28354,179.51684L215.28354,179.27685L216.00355,178.31686
				L216.00355,178.07687L216.00355,177.83687L215.76355,177.35688L215.52354,177.35688L213.84352,176.87689L212.8835,176.63689L
				212.6435,175.91691L212.6435,175.67691L212.6435,174.71693L212.6435,174.47693L212.6435,173.99694L212.40349,173.51695L211.92348,173.27695
				L211.44348,173.03696L211.20347,173.03696L210.72347,173.03696L210.48346,172.79696L209.28344,173.03696L207.36341,173.75694
				L206.16339,173.75694L205.68338,173.51695L205.68338,173.27695L205.92339,172.79696L206.16339,172.55696L206.16339,172.31697
				L206.8834,171.83698L208.08342,170.87699L208.08342,170.397L208.08342,170.15701L207.84342,169.91701L207.84342,169.67702L207.60341,169.19702
				L207.12341,168.47704L207.60341,167.03706L207.36341,166.79707L206.8834,166.55707L206.6434,166.55707L205.68338,166.79707L205.20337,166.55707
				L204.72337,166.55707L204.48336,166.55707L204.24336,166.31707L203.76335,166.07708L203.52335,165.59709L203.28334,165.35709
				L203.28334,164.6371L203.28334,164.39711L203.04334,164.15711L202.56333,163.43713L202.32333,162.95713L202.32333,162.47714L
				202.08332,161.51716L201.84332,161.03717L201.60332,160.79717L201.36331,160.79717L201.36331,160.07718L201.36331,158.15722L
				200.6433,157.43723L199.92329,156.23725L200.16329,155.51726L199.92329,155.27727L199.68328,155.03727L199.68328,154.55728L200.16329,154.07729
				L201.84332,153.3573L203.04334,152.15732L203.04334,151.91733L204.00335,150.47735L204.24336,149.03738L204.48336,148.55739L
				204.48336,148.31739L204.96337,147.5974L205.44338,145.67744L205.20337,144.47746L204.96337,143.51748L204.00335,140.87752L203.52335,140.15753
				L203.52335,139.91754L203.52335,139.67754L203.52335,139.43755L203.76335,138.47756L204.00335,137.75758L205.68338,135.59761
				L205.68338,135.35762L205.92339,135.35762L206.8834,134.63763L207.84342,133.19766L208.08342,132.71767L208.32343,132.47767L
				208.56343,132.23767L209.04344,131.75768L209.28344,131.0377L209.28344,130.7977L208.80343,129.11773L208.08342,128.15775L207.60341,127.67775
				L207.60341,126.95777L207.60341,126.71777L207.84342,125.99778L207.84342,125.75779L208.08342,125.51779L208.32343,125.2778L
				208.56343,124.7978L210.00345,123.59783L210.24346,123.35783L211.44348,122.15785L211.92348,121.91786L212.6435,121.19787L213.36351,120.23789
				L213.60351,119.99789L213.60351,119.5179L213.60351,119.2779L213.60351,119.03791L213.60351,118.79791L213.36351,118.55791L213.1235,118.07792
				L212.6435,117.35794L212.6435,117.11794L212.8835,116.39795L213.1235,116.15796L213.36351,116.15796L214.32352,117.11794L214.32352,117.35794
				L215.04354,117.35794L220.32362,118.55791L221.28364,118.79791L222.72366,119.2779L227.04373,120.95787L227.76375,121.19787L
				236.16388,123.11783L237.60391,123.35783L238.08391,123.59783L238.56392,123.59783L241.44397,123.35783L241.68397,123.35783L
				241.92398,123.35783L242.40399,123.35783L242.88399,123.35783L243.364,123.35783L245.76404,124.31781L248.16408,125.2778L248.64409,125.51779
				L249.3641,126.23778L250.56412,127.43776L251.76414,128.15775L252.00414,128.15775L252.48415,128.39774L252.72416,128.39774L
				254.64419,129.11773L255.3642,129.35772L255.6042,129.59772L255.84421,129.59772L256.08421,130.07771L255.84421,130.31771L255.84421,130.7977
				L253.20416,134.63763L252.96416,135.11762L252.96416,135.35762L252.72416,136.07761L252.72416,136.3176L252.72416,136.5576L252.72416,136.79759
				L252.96416,137.03759L253.44417,137.03759L254.16418,137.27759L254.88419,137.51758L255.84421,137.99757L256.32421,138.47756
				L256.56422,138.71756L256.80422,138.71756L257.04423,138.95756L258.48425,140.15753L259.20426,140.63753L259.68427,140.87752
				L260.16428,140.87752L260.40428,140.87752L260.40428,140.63753L261.12429,140.39753L262.08431,138.23757L262.32431,137.99757
				L262.56432,137.51758L263.04433,137.03759L263.04433,136.79759L263.76434,136.5576L265.68437,136.3176L265.92437,136.3176L266.16438,136.3176
				L266.40438,136.3176L266.64438,136.5576L267.12439,136.79759L267.8444,136.79759L267.8444,137.03759L268.08441,137.03759L269.04442,137.27759
				L269.28443,137.27759L269.28443,137.51758L269.76444,137.51758L270.24444,137.51758L270.72445,137.51758L271.20446,137.51758
				L271.44446,137.51758L274.80452,136.3176L277.44456,136.3176L279.36459,136.3176L279.6046,136.3176L283.44466,136.5576L283.92467,136.79759
				L286.56471,137.27759L286.80472,137.27759L288.48474,137.27759L289.68476,137.51758L291.12479,137.51758L293.52483,137.75758
				L294.48484,137.99757L295.44486,137.99757L297.12489,138.23757L298.0849,138.47756L300.96495,139.19755L302.16497,139.19755L
				302.40497,139.19755L302.64498,139.19755L303.60499,138.95756L304.80501,138.23757L305.52502,137.99757L306.72504,136.79759L
				307.68506,136.07761L309.12508,134.87763L310.80511,134.15764L311.52512,133.67765L312.00513,133.43765L313.44515,132.71767L
				313.68516,132.71767L313.92516,132.47767L315.12518,131.99768L316.80521,131.51769L317.76523,131.0377L319.92526,130.31771L320.40527,130.07771
				L320.40527,129.83772L320.64527,129.83772L320.88528,129.59772L321.60529,129.35772L322.5653,128.87773L324.72534,128.15775L
				326.88538,128.15775L327.84539,127.67775L328.3254,127.43776L328.80541,127.43776L329.76542,126.95777L330.48543,126.95777L330.72544,126.71777
				L331.44545,126.71777L335.04551,127.19776L337.68555,126.95777L339.60558,125.99778L340.3256,125.75779L344.40566,124.55781L
				345.60568,124.07782L347.52571,123.59783L350.88577,122.63784L353.04581,121.67786L356.40586,119.99789L358.5659,119.03791L360.00592,118.79791
				L360.24592,118.55791L360.96594,118.55791L363.84598,118.07792L364.08599,118.07792L365.52601,118.07792L366.24602,117.35794
				L366.96603,117.11794L366.96603,116.63795L367.20604,116.39795L367.68605,115.67797L368.16605,115.19797L368.88607,114.71798
				L374.88616,112.31802L375.12617,112.07803L376.56619,111.83803L379.20624,110.87805L380.40625,110.63805L382.08628,109.43808
				L382.56629,109.43808L382.56629,109.19808L382.80629,109.19808L383.2863,109.19808L383.52631,109.19808L384.72633,109.19808L
				385.20633,109.19808L385.44634,109.19808L386.88636,109.43808L387.12637,109.19808L387.84638,108.95808L388.56639,108.71809L
				388.80639,108.71809L389.2864,108.47809L390.00641,108.47809L390.24642,108.47809L390.72642,108.47809L391.20643,108.47809L392.16645,108.71809
				L392.64646,108.95808L393.60647,109.19808L394.08648,109.19808L395.76651,109.43808L396.24652,109.43808L396.48652,109.43808
				L397.68654,109.67807L398.64655,109.91807L399.36657,109.91807L400.08658,109.91807L400.56659,110.15806L400.80659,110.15806
				L403.68664,110.39806L405.60667,110.39806L406.08668,110.39806L406.56669,110.39806L408.24671,111.11805L408.72672,111.11805
				L411.12676,112.07803L412.08678,112.31802L412.80679,112.79802L416.16684,114.23799L417.60687,114.47799L419.04689,114.95798
				L419.28689,115.19797L420.00691,115.43797L423.36696,116.63795L423.84697,116.87794L424.08697,116.87794L424.56698,117.11794
				L425.04699,117.83793L425.527,118.31792L425.767,118.55791L426.72702,119.03791L426.96702,119.2779L427.20702,119.2779L428.16704,120.47788
				L430.56708,122.15785L431.7671,123.35783L432.24711,123.83782L432.48711,124.07782L432.96712,124.55781L435.36716,126.47778L
				435.60716,126.47778L436.08717,126.71777L436.08717,126.95777L436.32717,126.95777L436.56718,127.19776L438.72721,129.11773L
				441.84727,131.0377L442.08727,131.27769L442.56728,131.51769L442.80728,131.51769L443.7673,131.75768L446.16734,131.99768L447.36736,132.23767
				L447.60736,132.23767L447.84736,132.47767L448.80738,132.47767L449.7674,132.47767L450.48741,132.47767L451.92743,132.47767L
				455.52749,132.71767L463.44762,132.47767L463.92763,132.47767L464.40764,132.47767L464.64764,132.47767L464.88764,132.47767L
				466.32767,132.47767L469.20772,132.47767L472.56777,131.99768L472.80777,131.99768L474.96781,131.99768L478.80787,132.23767L
				482.16793,132.71767L484.56797,133.19766L485.76799,133.43765L489.12804,134.15764L489.36805,134.15764L491.04807,134.63763L
				491.28808,134.63763L496.80817,136.07761L497.04817,136.07761L498.00819,136.3176L503.52828,135.11762L504.9683,134.87763L505.92832,134.63763
				L511.20841,133.43765L511.68841,133.43765L516.9685,132.95766L520.56856,132.95766L521.52858,132.71767L521.76858,132.71767L
				522.48859,132.47767L522.72859,132.47767L523.2086,132.23767L523.92861,132.47767L524.16862,132.47767L524.64863,132.47767L528.24869,132.23767
				L528.72869,131.99768L528.9687,131.99768L529.2087,131.99768L531.36874,131.75768L533.52877,131.51769L535.4488,131.0377L539.28887,130.07771
				L539.52887,130.07771L540.72889,129.83772L541.2089,129.83772L542.40892,129.59772L543.36893,129.59772L545.76897,129.59772L
				546.72899,129.35772L547.449,129.11773L547.68901,129.11773L548.40902,128.87773L550.08904,128.39774L552.00908,127.67775L552.72909,127.43776
				L553.2091,127.43776L562.80925,126.71777L563.76927,126.47778L564.48928,126.47778L565.4493,126.23778L566.64932,126.23778L567.36933,125.75779
				L568.08934,125.51779L569.04936,125.0378L569.52936,124.7978L570.48938,124.31781L571.9294,123.59783L576.24947,122.63784L578.16951,121.91786
				L580.08954,121.43786L582.96959,119.75789L583.9296,119.5179L584.16961,119.2779L585.12962,119.03791L585.12962,118.79791L586.08964,118.55791
				L586.08964,118.31792L586.32964,118.31792L587.28966,118.07792L588.24967,117.83793L589.9297,117.11794L590.88972,116.63795L
				591.60973,116.15796L592.32974,115.67797L593.04975,114.95798L593.28976,114.71798L594.00977,114.47799L595.20979,113.99799L
				597.12982,113.518L599.04985,113.03801L601.9299,112.79802L603.36992,112.55802L603.84993,112.55802L604.32994,112.31802L604.56994,112.31802
				L607.20998,111.35804L607.44999,111.35804L608.41,110.87805L608.89001,110.63805L610.09003,109.91807L610.33004,109.91807L610.81004,109.67807
				L612.73007,108.2381L613.21008,107.7581L615.37012,107.03812L617.05015,106.07813L620.6502,104.15817L621.37022,103.91817L622.09023,103.67818
				L624.01026,102.95819L624.97028,102.71819L625.45028,102.4782L625.93029,102.2382L626.4103,101.99821L627.37032,101.75821L628.57034,100.79823
				L628.81034,100.79823L629.05034,100.55823L630.01036,99.59825L630.97037,98.87826L631.21038,98.87826L633.13041,97.91828L633.37041,97.67828
				L635.77045,97.19829L640.09052,96.7183L640.33053,96.7183L640.33053,96.4783L643.69058,96.23831L644.6506,95.99831L645.13061,95.75832
				L649.21067,94.31834L651.37071,92.87837L652.09072,92.63837L654.97077,91.91838L656.17079,91.1984L659.53084,89.99842L659.77085,89.75842
				L660.97087,89.03843L661.21087,89.03843L663.1309,87.83846L664.57093,87.59846L666.73096,87.35846L667.21097,87.35846L668.17099,87.11847
				L668.41099,86.87847L668.65099,86.63848L669.61101,86.39848L671.05103,85.4385L671.53104,85.4385L672.01105,85.4385L673.45107,85.4385
				L675.1311,85.4385L675.85111,85.4385L676.33112,85.67849L676.57112,85.91849L676.81113,86.15848L677.29114,86.63848L677.53114,86.63848
				L677.77114,86.63848L678.01115,86.63848L678.97116,86.87847L679.45117,86.87847L679.93118,86.63848L681.3712,85.67849L683.05123,84.95851
				L686.89129,84.71851L688.57132,84.71851L689.05133,84.95851L689.53134,84.95851L690.25135,84.95851L690.73136,85.1985L691.69137,85.4385
				L691.93138,85.4385L692.41138,85.67849L692.65139,85.67849L695.77144,86.39848L696.25145,86.39848L699.3715,86.87847L702.49155,87.11847
				L703.45157,87.35846L705.13159,87.59846L705.3716,87.59846L708.01164,88.07845L708.49165,88.31845L708.97166,88.31845L709.21166,88.31845
				L710.17168,88.31845L710.65168,88.55844L713.53173,88.55844L713.77174,88.55844L714.25174,88.55844L714.73175,88.55844L716.41178,89.27843
				L718.57181,89.99842L718.81182,90.23841L719.05182,90.23841L719.29183,90.9584L719.29183,91.43839L719.53183,91.43839L720.25184,91.67839
				L720.73185,91.67839L721.69187,91.67839L721.93187,91.67839L722.17187,91.67839L723.6119,91.1984L723.6119,90.9584L724.57191,90.47841
				L725.29193,90.23841L726.01194,89.99842L727.69196,89.99842L734.65208,89.99842L736.57211,89.99842L737.05212,89.99842L738.97215,89.99842
				L741.37219,89.99842L742.33221,89.99842L751.69236,89.99842L752.89238,89.75842L756.49244,89.51843L757.21245,89.51843L757.93246,89.27843
				L759.37249,89.03843L759.85249,89.03843L761.53252,88.55844L765.61259,87.11847L765.85259,87.11847L766.0926,87.11847L767.05261,86.63848
				L768.97264,86.39848L769.21265,86.39848L772.3327,86.15848L773.29271,86.15848L777.13278,86.15848L778.81281,85.91849L780.25283,85.67849
				L780.49283,85.67849L783.37288,85.1985L785.05291,84.71851L790.573,83.75853L792.97304,83.27854L795.37308,82.79854L799.93315,81.83856
				L804.49323,81.11857L807.37327,79.91859L808.57329,79.19861L809.0533,79.19861L809.0533,78.95861L809.29331,78.95861L813.61338,77.75863
				L814.8134,77.03865L815.29341,76.79865L816.25342,76.31866L819.13347,75.11868L819.61348,74.63869L819.85348,74.39869L820.09348,74.1587
				L821.0535,72.47873L821.53351,72.23873L821.77351,71.99873L822.97353,71.03875L823.93355,70.31876L824.41356,69.83877L826.57359,68.87879
				L827.77361,68.1588L828.25362,67.91881L828.97363,67.43881L830.41365,65.27885L830.89366,64.79886L831.37367,63.59888L831.85368,63.35889
				L832.09368,63.35889L832.33369,63.35889L832.33369,63.11889L832.57369,63.35889L833.2937,63.35889L833.53371,63.59888L833.2937,63.83888
				L833.2937,64.55886L832.81369,65.51885L832.81369,65.75884L831.85368,67.19882L831.61367,67.19882L831.61367,67.43881L831.85368,67.67881
				L831.85368,67.91881L832.09368,67.91881L832.57369,67.91881"/>
		</g>
	</g>
</svg>
